/* XPM */
static char * hide_active_xpm[] = {
"14 15 2 1",
" 	c None",
".	c #62899F",
"              ",
"              ",
"              ",
"              ",
"              ",
"              ",
"              ",
"   ........   ",
"   ........   ",
"              ",
"              ",
"              ",
"              ",
"              ",
"              "};
