/* XPM */
static char * hide_inactive_xpm[] = {
"14 15 2 1",
" 	c None",
".	c #B1B1B1",
"              ",
"              ",
"              ",
"              ",
"              ",
"              ",
"              ",
"   ........   ",
"   ........   ",
"              ",
"              ",
"              ",
"              ",
"              ",
"              "};
