/* XPM */
static char * hide_prelight_xpm[] = {
"14 15 3 1",
" 	c None",
".	c #000000",
"+	c #2E91C9",
"..............",
"..............",
"..............",
"..............",
"..............",
"..............",
"..............",
"...++++++++...",
"...++++++++...",
"..............",
"..............",
"..............",
"..............",
"..............",
".............."};
